HIERARCHY
ROOT Hips
{
	OFFSET	0.00	0.00	0.00
	CHANNELS 6 Xposition Yposition Zposition Zrotation Xrotation Yrotation
	JOINT LeftUpLeg
	{
		OFFSET	 0.126116	-0.014019	-0.065224
		CHANNELS 3 Zrotation Xrotation Yrotation
		JOINT LeftLeg
		{
			OFFSET	 0.000000	 0.000000	 0.569914
			CHANNELS 3 Zrotation Xrotation Yrotation
			JOINT LeftFoot
			{
				OFFSET	 0.000000	 0.000000	 0.544423
				CHANNELS 3 Zrotation Xrotation Yrotation
				JOINT LeftToeBase
				{
					OFFSET	 0.000000	 0.000000	 0.207117
					CHANNELS 3 Zrotation Xrotation Yrotation
					End Site
					{
						OFFSET	 0.000000	 0.000000	 0.207117
					}
				}
			}
		}
	}
	JOINT RightUpLeg
	{
		OFFSET	-0.124023	-0.008373	-0.065224
		CHANNELS 3 Zrotation Xrotation Yrotation
		JOINT RightLeg
		{
			OFFSET	 0.000000	 0.000000	 0.570047
			CHANNELS 3 Zrotation Xrotation Yrotation
			JOINT RightFoot
			{
				OFFSET	 0.000000	 0.000000	 0.544354
				CHANNELS 3 Zrotation Xrotation Yrotation
				JOINT RightToeBase
				{
					OFFSET	 0.000000	 0.000000	 0.207540
					CHANNELS 3 Zrotation Xrotation Yrotation
					End Site
					{
						OFFSET	 0.000000	 0.000000	 0.207540
					}
				}
			}
		}
	}
	JOINT Spine
	{
		OFFSET	 0.000184	-0.007763	 0.117403
		CHANNELS 3 Zrotation Xrotation Yrotation
		JOINT Spine1
		{
			OFFSET	 0.000000	 0.000000	 0.137269
			CHANNELS 3 Zrotation Xrotation Yrotation
			JOINT Spine2
			{
				OFFSET	 0.000000	 0.000000	 0.156879
				CHANNELS 3 Zrotation Xrotation Yrotation
				JOINT LeftShoulder
				{
					OFFSET	 0.080501	-0.002496	 0.160144
					CHANNELS 3 Zrotation Xrotation Yrotation
					JOINT LeftArm
					{
						OFFSET	 0.000000	 0.000000	 0.164363
						CHANNELS 3 Zrotation Xrotation Yrotation
						JOINT LeftForeArm
						{
							OFFSET	 0.000000	 0.000000	 0.364576
							CHANNELS 3 Zrotation Xrotation Yrotation
							JOINT LeftHand
							{
								OFFSET	 0.000000	 0.000000	 0.360812
								CHANNELS 3 Zrotation Xrotation Yrotation
								JOINT LeftHandIndex1
								{
									OFFSET	 0.000000	 0.000000	 0.086006
									CHANNELS 3 Zrotation Xrotation Yrotation
									JOINT LeftHandIndex2
									{
										OFFSET	 0.000000	 0.000000	 0.047236
										CHANNELS 3 Zrotation Xrotation Yrotation
										JOINT LeftHandIndex3
										{
											OFFSET	-0.004284	-0.000551	 0.038166
											CHANNELS 3 Zrotation Xrotation Yrotation
											End Site
											{
												OFFSET	-0.004284	-0.000551	 0.038166
											}
										}
									}
								}
							}
						}
					}
				}
				JOINT Neck
				{
					OFFSET	 0.000000	 0.000000	 0.176489
					CHANNELS 3 Zrotation Xrotation Yrotation
					JOINT Head
					{
						OFFSET	 0.000000	-0.001747	 0.077940
						CHANNELS 3 Zrotation Xrotation Yrotation
						End Site
						{
							OFFSET	 0.000000	-0.001747	 0.077940
						}
					}
				}
				JOINT RightShoulder
				{
					OFFSET	-0.080363	 0.000306	 0.159706
					CHANNELS 3 Zrotation Xrotation Yrotation
					JOINT RightArm
					{
						OFFSET	 0.000000	 0.000000	 0.164196
						CHANNELS 3 Zrotation Xrotation Yrotation
						JOINT RightForeArm
						{
							OFFSET	 0.000000	 0.000000	 0.365611
							CHANNELS 3 Zrotation Xrotation Yrotation
							JOINT RightHand
							{
								OFFSET	 0.000000	 0.000000	 0.360648
								CHANNELS 3 Zrotation Xrotation Yrotation
								JOINT RightHandIndex1
								{
									OFFSET	 0.000000	 0.000000	 0.069977
									CHANNELS 3 Zrotation Xrotation Yrotation
									JOINT RightHandIndex2
									{
										OFFSET	 0.000000	 0.000000	 0.052305
										CHANNELS 3 Zrotation Xrotation Yrotation
										JOINT RightHandIndex3
										{
											OFFSET	 0.009002	-0.000782	 0.042196
											CHANNELS 3 Zrotation Xrotation Yrotation
											End Site
											{
												OFFSET	 0.009002	-0.000782	 0.042196
											}
										}
									}
								}
							}
						}
					}
				}
			}
		}
	}
}
MOTION
Frames:    11
Frame Time: 0.03333334
-0.000396	 0.015265	 1.269377	-0.001178	 0.017395	-0.041498	 2.712114	-2.432725	 177.852300	 1.457752	-13.139680	-0.769464	-7.241570	 71.414380	 1.138924	-2.385833	 28.452760	 0.000004	-2.833419	-2.694391	-177.779800	-1.439136	-13.540730	 0.779243	 7.083689	 71.657680	-1.127518	 2.384658	 28.388730	 0.000004	-13.653090	 1.750629	 0.044175	 0.564578	 6.971081	 0.231659	-1.644242	-8.891366	-0.461319	-91.776180	 78.527490	 180.000000	 52.878980	 37.607680	-52.396280	-23.114280	 2.069564	-6.990875	-38.167590	-9.229366	-5.763105	-2.635965	 4.993658	 6.788941	-5.165319	 0.784187	 3.516649	-5.225038	 0.466231	 0.424329	-0.000002	-3.783157	-0.089647	-1.519013	 3.030056	 0.040164	 89.782170	 78.203850	 179.999900	 1.644055	 12.896020	 101.583100	-19.328160	 1.735557	 7.097648	 11.092860	-11.252540	-4.565755	 6.112037	 4.509576	-0.364401	 4.968462	 1.518543	-9.347576	 5.168945	 0.703820	 2.021906
-0.000422	 0.014723	 1.269538	-0.001222	 0.016939	-0.051026	 2.716269	-2.342311	 177.854700	 1.460108	-12.967700	-0.759039	-7.194630	 71.316060	 1.089800	-2.385833	 28.452760	 0.000004	-2.837454	-2.588450	-177.763700	-1.441385	-13.379030	 0.769586	 7.046593	 71.585850	-1.088436	 2.384658	 28.388730	 0.000004	-13.270000	 1.762305	 0.038102	 0.647666	 6.935263	 0.265074	-1.895198	-8.840797	-0.530181	-91.776120	 78.527450	 179.999900	 52.891390	 37.603470	-52.436620	-23.236500	 2.098635	-7.039861	-38.089740	-8.644931	-5.662214	-2.635965	 4.993658	 6.788941	-5.165319	 0.784187	 3.516649	-5.225038	 0.466231	 0.424329	-0.000002	-3.783157	-0.089647	-1.755117	 3.043448	 0.046615	 89.782070	 78.203900	-180.000000	 1.694729	 12.963780	 101.613300	-19.261180	 1.764991	 7.149864	 11.121640	-10.704890	-4.665807	 6.112037	 4.509576	-0.364401	 4.968462	 1.518543	-9.347576	 5.168945	 0.703820	 2.021906
-0.000446	 0.014174	 1.269684	-0.001214	 0.016367	-0.060804	 2.720175	-2.256567	 177.857700	 1.462291	-12.805830	-0.749238	-7.151006	 71.222780	 1.044142	-2.385833	 28.452760	 0.000004	-2.841398	-2.486863	-177.747700	-1.443468	-13.227080	 0.760525	 7.012530	 71.519020	-1.052536	 2.384658	 28.388730	 0.000004	-12.861000	 1.775690	 0.032042	 0.730193	 6.894199	 0.299105	-2.144891	-8.782774	-0.598515	-91.776240	 78.527470	-180.000000	 52.911060	 37.600320	-52.491310	-23.357020	 2.127868	-7.088609	-38.005150	-8.042614	-5.558620	-2.635965	 4.993658	 6.788941	-5.165319	 0.784187	 3.516649	-5.225038	 0.466231	 0.424329	-0.000002	-3.783157	-0.089647	-1.990364	 3.058925	 0.053135	 89.782180	 78.203870	 179.999900	 1.731764	 13.040070	 101.641500	-19.200840	 1.794539	 7.197778	 11.151280	-10.150050	-4.771478	 6.112037	 4.509576	-0.364401	 4.968462	 1.518543	-9.347576	 5.168945	 0.703820	 2.021906
-0.000464	 0.013687	 1.269800	-0.001176	 0.015761	-0.069599	 2.723405	-2.185864	 177.860900	 1.464058	-12.673500	-0.741234	-7.115700	 71.145770	 1.007204	-2.385833	 28.452760	 0.000004	-2.844766	-2.401848	-177.733700	-1.445154	-13.102840	 0.753125	 6.985370	 71.465160	-1.023916	 2.384658	 28.388730	 0.000004	-12.479940	 1.830191	 0.062562	 0.805715	 6.775720	 0.263196	-2.356637	-8.690823	-0.625177	-91.776180	 78.527420	 180.000000	 52.933840	 37.600170	-52.550570	-23.460830	 2.154979	-7.132837	-37.924970	-7.501802	-5.465964	-2.635965	 4.993658	 6.788941	-5.165319	 0.784187	 3.516649	-5.225038	 0.466231	 0.424329	-0.000002	-3.783157	-0.089647	-2.195405	 3.074351	 0.058907	 89.782170	 78.203900	 179.999900	 1.742519	 13.105200	 101.657100	-19.151250	 1.820145	 7.241078	 11.174140	-9.652205	-4.867418	 6.112037	 4.509576	-0.364401	 4.968462	 1.518543	-9.347576	 5.168945	 0.703820	 2.021906
-0.000478	 0.013144	 1.269915	-0.001090	 0.014998	-0.079424	 2.726707	-2.112957	 177.865000	 1.465839	-12.538340	-0.733070	-7.080029	 71.066290	 0.969891	-2.385833	 28.452760	 0.000004	-2.848359	-2.312781	-177.718700	-1.446856	-12.975950	 0.745575	 6.958391	 71.410840	-0.995470	 2.384658	 28.388730	 0.000004	-12.035250	 1.845167	 0.061790	 0.884207	 6.728243	 0.287302	-2.592446	-8.622696	-0.684774	-91.776160	 78.527470	 180.000000	 52.969670	 37.600630	-52.634300	-23.573340	 2.183511	-7.179325	-37.829960	-6.895710	-5.362747	-2.635965	 4.993658	 6.788941	-5.165319	 0.784187	 3.516649	-5.225038	 0.466231	 0.424329	-0.000002	-3.783157	-0.089647	-2.419024	 3.093269	 0.065310	 89.782110	 78.203890	 180.000000	 1.714677	 13.180040	 101.659900	-19.102010	 1.847832	 7.287563	 11.198010	-9.085483	-4.975513	 6.112037	 4.509576	-0.364401	 4.968462	 1.518543	-9.347576	 5.168945	 0.703820	 2.021906
-0.000484	 0.012632	 1.269981	-0.000967	 0.014191	-0.088684	 2.729082	-2.062613	 177.870400	 1.467007	-12.448990	-0.727676	-7.057046	 71.010870	 0.945971	-2.385833	 28.452760	 0.000004	-2.851077	-2.246638	-177.705800	-1.447964	-12.892700	 0.740626	 6.943061	 71.378060	-0.979299	 2.384658	 28.388730	 0.000004	-11.599120	 1.860325	 0.061178	 0.955748	 6.680220	 0.309866	-2.807736	-8.553839	-0.738834	-91.776180	 78.527430	 180.000000	 53.011310	 37.606380	-52.729760	-23.674420	 2.208913	-7.220486	-37.735660	-6.327545	-5.266672	-2.635965	 4.993658	 6.788941	-5.165319	 0.784187	 3.516649	-5.225038	 0.466231	 0.424329	-0.000002	-3.783157	-0.089647	-2.623580	 3.112588	 0.071279	 89.782070	 78.203870	-180.000000	 1.736450	 13.273390	 101.661100	-19.063210	 1.872857	 7.329816	 11.221240	-8.540083	-5.077229	 6.112037	 4.509576	-0.364401	 4.968462	 1.518543	-9.347576	 5.168945	 0.703820	 2.021906
-0.000482	 0.012050	 1.270008	-0.000786	 0.013187	-0.099135	 2.730875	-2.027082	 177.878200	 1.467739	-12.392330	-0.724258	-7.043325	 70.970770	 0.931872	-2.385833	 28.452760	 0.000004	-2.853389	-2.192295	-177.692900	-1.448655	-12.840660	 0.737532	 6.937262	 71.362320	-0.973193	 2.384658	 28.388730	 0.000004	-11.082870	 1.878761	 0.060550	 1.034216	 6.621822	 0.335145	-3.044254	-8.470379	-0.797669	-91.776150	 78.527450	 180.000000	 53.070030	 37.618040	-52.859950	-23.783240	 2.235243	-7.263119	-37.622180	-5.688524	-5.159593	-2.635965	 4.993658	 6.788941	-5.165319	 0.784187	 3.516649	-5.225038	 0.466231	 0.424329	-0.000002	-3.783157	-0.089647	-2.848782	 3.136223	 0.077989	 89.782120	 78.203890	 180.000000	 1.813711	 13.392680	 101.661600	-19.024600	 1.899997	 7.374503	 11.239470	-7.924034	-5.192300	 6.112037	 4.509576	-0.364401	 4.968462	 1.518543	-9.347576	 5.168945	 0.703820	 2.021906
-0.000476	 0.011484	 1.270020	-0.000571	 0.012127	-0.109251	 2.732331	-1.999017	 177.886200	 1.468277	-12.350740	-0.721751	-7.033635	 70.938770	 0.922021	-2.385833	 28.452760	 0.000004	-2.855455	-2.145445	-177.680900	-1.449162	-12.802340	 0.735256	 6.934944	 71.353210	-0.970772	 2.384658	 28.388730	 0.000004	-10.555620	 1.897944	 0.059951	 1.108175	 6.561011	 0.359555	-3.267540	-8.383694	-0.852642	-91.776150	 78.527490	 180.000000	 53.136790	 37.634190	-53.004560	-23.882820	 2.260601	-7.303692	-37.505210	-5.073313	-5.057681	-2.635965	 4.993658	 6.788941	-5.165319	 0.784187	 3.516649	-5.225038	 0.466231	 0.424329	-0.000002	-3.783157	-0.089647	-3.062012	 3.161168	 0.084497	 89.782100	 78.203890	 180.000000	 1.825092	 13.516860	 101.646600	-18.991160	 1.925093	 7.414725	 10.978270	-7.215688	-5.307243	 6.112037	 4.509576	-0.364401	 4.968462	 1.518543	-9.347576	 5.168945	 0.703820	 2.021906
-0.000472	 0.010946	 1.270057	-0.000478	 0.011214	-0.117748	 2.734160	-1.962065	 177.891900	 1.469061	-12.289750	-0.718074	-7.018765	 70.897370	 0.906667	-2.385833	 28.452760	 0.000004	-2.857806	-2.089653	-177.669500	-1.449942	-12.742790	 0.731720	 6.926851	 71.332780	-0.962262	 2.384658	 28.388730	 0.000004	-10.024280	 1.917247	 0.058203	 1.177192	 6.498991	 0.382322	-3.475875	-8.295491	-0.903122	-91.776110	 78.527450	 179.999900	 53.207340	 37.655330	-53.158480	-23.972350	 2.283155	-7.339608	-37.385740	-4.491073	-4.962585	-2.635965	 4.993658	 6.788941	-5.165319	 0.784187	 3.516649	-5.225038	 0.466231	 0.424329	-0.000002	-3.783157	-0.089647	-3.261508	 3.186863	 0.090738	 89.782100	 78.203890	 180.000000	 1.658906	 13.598330	 101.598900	-18.964740	 1.947704	 7.451806	 10.700870	-6.534030	-5.416141	 6.112037	 4.509576	-0.364401	 4.968462	 1.518543	-9.347576	 5.168945	 0.703820	 2.021906
-0.000472	 0.010419	 1.270158	-0.000589	 0.010525	-0.124534	 2.737195	-1.896762	 177.893500	 1.470597	-12.169430	-0.710827	-6.987985	 70.825870	 0.874462	-2.385833	 28.452760	 0.000004	-2.861224	-2.004740	-177.657400	-1.451510	-12.622360	 0.724574	 6.902612	 71.281310	-0.936718	 2.384658	 28.388730	 0.000004	-9.468148	 1.937259	 0.054806	 1.244232	 6.433421	 0.404092	-3.677918	-8.202648	-0.951114	-91.776180	 78.527470	 180.000000	 53.283710	 37.679370	-53.323930	-24.055450	 2.305078	-7.373951	-37.259650	-3.921966	-4.870991	-2.635965	 4.993658	 6.788941	-5.165319	 0.784187	 3.516649	-5.225038	 0.466231	 0.424329	-0.000002	-3.783157	-0.089647	-3.455528	 3.214188	 0.096965	 89.782110	 78.203890	 180.000000	 1.161947	 13.725360	 101.504900	-18.853930	 1.969545	 7.486328	 10.311830	-5.857330	-5.511077	 6.112037	 4.509576	-0.364401	 4.968462	 1.518543	-9.347576	 5.168945	 0.703820	 2.021906
-0.000481	 0.009919	 1.270351	-0.000681	 0.009816	-0.130988	 2.741798	-1.788241	 177.891400	 1.473241	-11.959390	-0.698191	-6.933274	 70.709070	 0.816854	-2.385833	 28.452760	 0.000004	-2.866413	-1.878325	-177.642400	-1.454179	-12.414670	 0.712267	 6.854520	 71.185260	-0.885941	 2.384658	 28.388730	 0.000004	-8.900077	 1.957783	 0.051365	 1.307657	 6.366092	 0.425146	-3.869313	-8.107636	-0.995952	-91.776280	 78.527450	-179.999900	 53.362410	 37.706570	-53.495390	-24.130050	 2.325163	-7.405184	-37.129370	-3.382210	-4.785598	-2.635965	 4.993658	 6.788941	-5.165319	 0.784187	 3.516649	-5.225038	 0.466231	 0.424329	-0.000002	-3.783157	-0.089647	-3.639856	 3.242527	 0.103042	 89.782120	 78.203870	 180.000000	 0.243439	 13.869420	 101.361100	-18.667310	 1.989778	 7.518113	 9.826189	-5.204664	-5.589975	 6.112037	 4.509576	-0.364401	 4.968462	 1.518543	-9.347576	 5.168945	 0.703820	 2.021906
